# Blender v2.93.6 OBJ File: 'House.blend'
# www.blender.org
mtllib House.mtl
o Cube
v 5.810930 2.440422 -2.720704
v 5.810930 -0.019017 -2.720704
v 5.810930 2.440422 3.400682
v 5.810930 -0.019017 3.400682
v -5.810930 2.440422 -2.720704
v -5.810930 -0.019017 -2.720704
v -5.810930 2.440422 3.400682
v -5.810930 -0.019017 3.400682
v 1.396463 -0.019017 -2.720704
v 1.396463 2.440422 3.400682
v 1.396463 -0.019017 3.400682
v 1.396463 2.440422 -2.720704
v 1.396463 -0.019017 -6.262714
v -5.810930 -0.019017 -6.262714
v -5.810930 2.440422 -6.262714
v 1.396463 2.440422 -6.262714
v 6.323626 2.369324 4.065373
v 6.323626 2.369324 -3.352715
v -6.463324 2.369324 4.065373
v -6.463324 2.369324 -3.352715
v 6.323626 2.670317 -3.352715
v 6.323626 2.670317 4.065373
v -6.463324 2.670317 -3.352715
v -6.463324 2.670317 4.065373
v 3.036058 3.957343 0.356329
v -2.140679 3.957343 0.356329
v 2.098000 2.670317 -3.352715
v 2.098000 2.670317 -6.850222
v -6.463324 2.670317 -6.850222
v -2.140679 3.957343 -3.141178
v 2.096841 2.369324 -3.352715
v 2.096841 2.369324 -6.849870
v -6.463324 2.369324 -6.849870
vt 0.329334 0.144840
vt 0.467326 0.144840
vt 0.467326 0.395155
vt 0.329334 0.395155
vt 0.827826 0.000000
vt 0.827826 0.222510
vt 0.689835 0.222510
vt 0.689835 0.000000
vt 0.467326 0.790309
vt 0.244816 0.790309
vt 0.244816 0.539994
vt 0.467326 0.539994
vt 0.605317 0.144840
vt 0.689835 0.144840
vt 0.689835 0.395155
vt 0.605317 0.395155
vt 0.221464 0.696660
vt 0.000000 0.696660
vt 0.000000 0.446345
vt 0.221464 0.446345
vt 0.233609 0.696660
vt 0.233609 0.919170
vt 0.149090 0.919170
vt 0.149090 0.696660
vt 0.244816 0.395155
vt 0.467326 0.395155
vt 0.467326 0.144840
vt 0.467326 0.395155
vt 0.912345 0.000000
vt 0.912345 0.222510
vt 0.244816 0.144840
vt 0.244816 0.395155
vt 0.993804 0.718840
vt 0.993804 0.941350
vt 0.855812 0.941350
vt 0.855812 0.718840
vt 0.467326 0.919959
vt 0.467326 0.698495
vt 0.612165 0.698495
vt 0.612165 0.919959
vt 0.467326 0.000000
vt 0.605317 0.000000
vt 0.329334 0.000000
vt 0.467326 0.000000
vt 0.000000 0.000000
vt 0.244816 0.000000
vt 0.244816 0.303340
vt 0.080925 0.303340
vt 0.000000 0.303340
vt 0.467326 0.395155
vt 0.548229 0.395155
vt 0.629381 0.546825
vt 0.530269 0.546825
vt 0.000000 1.000000
vt 0.000000 0.696660
vt 0.027103 0.696660
vt 0.027103 1.000000
vt 0.639396 0.779420
vt 0.639396 0.698494
vt 0.666628 0.698517
vt 0.666628 0.779420
vt 0.712142 0.698494
vt 0.712142 0.395155
vt 0.739373 0.395155
vt 0.739373 0.698494
vt 0.939576 0.000000
vt 0.939576 0.244816
vt 0.912345 0.244816
vt 0.912345 0.000000
vt 0.855812 0.546825
vt 0.712142 0.698494
vt 0.467326 0.698494
vt 0.149090 0.848330
vt 0.876811 0.718840
vt 0.876811 0.523091
vt 0.967226 0.412277
vt 0.967226 0.608026
vt 0.689835 0.303662
vt 0.841505 0.222510
vt 0.841505 0.386423
vt 0.855812 0.689844
vt 0.739373 0.841514
vt 0.244816 0.954223
vt 0.244816 0.790309
vt 0.387836 0.790309
vt 0.387836 0.954223
vt 0.612165 0.698495
vt 0.639396 0.698517
vt 0.639396 0.862408
vt 0.612165 0.862408
vt 0.244816 0.446345
vt 0.080925 0.446345
vt 0.712142 0.841500
vt 0.855812 0.505958
vt 0.946218 0.395155
vn 0.0000 1.0000 0.0000
vn 0.0000 0.0000 1.0000
vn -1.0000 0.0000 0.0000
vn 0.0000 -1.0000 0.0000
vn 1.0000 0.0000 0.0000
vn 0.0000 0.0000 -1.0000
vn 0.0000 0.9447 -0.3278
vn -0.2854 0.9584 0.0000
vn 0.0000 0.9447 0.3278
vn 0.3645 0.9312 0.0000
vn 0.2905 0.9569 0.0000
vn 0.0000 -0.0012 -1.0000
vn 1.0000 -0.0038 0.0000
usemtl Material
s off
f 12/1/1 5/2/1 7/3/1 10/4/1
f 11/5/2 10/6/2 7/7/2 8/8/2
f 8/9/3 7/10/3 5/11/3 6/12/3
f 9/13/4 2/14/4 4/15/4 11/16/4
f 2/17/5 1/18/5 3/19/5 4/20/5
f 9/21/6 12/22/6 1/23/6 2/24/6
f 6/12/3 5/11/3 15/25/3 14/26/3
f 6/27/4 9/13/4 11/16/4 8/28/4
f 4/29/2 3/30/2 10/6/2 11/5/2
f 1/31/1 12/1/1 10/4/1 3/32/1
f 14/33/6 15/34/6 16/35/6 13/36/6
f 12/37/5 9/38/5 13/39/5 16/40/5
f 9/13/4 6/27/4 14/41/4 13/42/4
f 5/2/1 12/1/1 16/43/1 15/44/1
f 17/45/4 19/46/4 20/47/4 31/48/4 18/49/4
f 21/50/7 27/51/7 26/52/7 25/53/7
f 17/54/5 18/55/5 21/56/5 22/57/5
f 18/58/6 31/59/6 27/60/6 21/61/6
f 20/62/3 19/63/3 24/64/3 23/65/3
f 19/66/2 17/67/2 22/68/2 24/69/2
f 23/65/8 24/64/8 26/70/8
f 24/71/9 22/72/9 25/53/9 26/52/9
f 22/57/10 21/56/10 25/73/10
f 26/74/11 27/75/11 28/76/11 30/77/11
f 30/78/7 28/79/7 29/80/7
f 23/65/8 26/70/8 30/81/8 29/82/8
f 27/83/4 23/84/4 29/85/4 28/86/4
f 28/87/12 32/88/12 33/89/12 29/90/12
f 31/48/4 20/47/4 33/91/4 32/92/4
f 20/62/3 23/65/3 29/82/3 33/93/3
f 27/75/13 31/94/13 32/95/13 28/76/13
